<svg width="301" height="50" viewBox="0 0 301 50" fill="none" xmlns="http://www.w3.org/2000/svg">
<path d="M289.527 20L299.496 32.0542C299.767 32.3844 299.977 32.7789 300.126 33.2376C300.289 33.6962 300.371 34.1824 300.371 34.6962C300.371 35.2282 300.289 35.7328 300.126 36.2098C299.964 36.6685 299.74 37.063 299.455 37.3932L289.609 49.0621H282L294.125 34.6962L282 20H289.527Z" fill="#A8A8A8"/>
<path d="M18.3706 18L6.2456 32.6962L18.3706 47.0621H10.7416L0.915479 35.3932C0.30516 34.7144 0 33.8154 0 32.6962C0 32.1824 0.0745946 31.6962 0.223784 31.2376C0.386536 30.7789 0.603538 30.3844 0.874791 30.0542L10.823 18H18.3706Z" fill="#A8A8A8"/>
<path d="M258.548 21.9516C258.784 22.6375 258.843 23.3327 258.725 24.0372C258.621 24.7417 258.37 25.3534 257.972 25.8725L244.657 42.5572H258.503V49.7872H237.723C237.132 49.7872 236.593 49.5832 236.105 49.1754C235.633 48.749 235.278 48.2114 235.042 47.5625C234.821 46.8766 234.761 46.1814 234.865 45.477C234.983 44.754 235.256 44.1237 235.685 43.586L248.933 26.957H235.086V19.727H255.911C256.487 19.727 257.012 19.9216 257.484 20.311C257.972 20.7003 258.326 21.2471 258.548 21.9516Z" fill="#39D353"/>
<path d="M283.638 40.0925C283.638 41.0832 283.343 42.4042 282.957 43.3675C282.699 44.505 282.279 45.5691 281.695 46.5599C281.126 47.5323 280.373 48.3487 279.437 49.0092C278.515 49.6697 277.389 50 276.06 50H266.519C265.786 50 264.993 49.8257 264.138 49.4771C263.298 49.1285 262.511 48.5689 261.779 47.7983C261.06 47.0094 260.456 45.9911 259.968 44.7435C259.48 43.4775 259.236 41.9455 259.236 40.1475C259.236 39.1568 259.364 38.0834 259.622 36.9276C259.88 35.7717 260.293 34.7075 260.863 33.7351C261.446 32.7444 262.199 31.9188 263.121 31.2583C264.057 30.5978 265.19 30.2675 266.519 30.2675H276.06V37.0927H266.519C265.8 37.0927 265.244 37.3954 264.851 38.0009C264.457 38.588 264.261 39.3219 264.261 40.2026C264.261 41.1383 264.484 41.8722 264.932 42.4042C265.393 42.9179 265.936 43.1748 266.559 43.1748H276.06C276.779 43.1748 277.335 42.8813 277.728 42.2941C278.122 41.707 278.318 40.9731 278.318 40.0925V30.1024C278.318 29.1667 278.101 28.4236 277.667 27.8732C277.247 27.3228 276.711 26.9828 276.06 26.9828L264.444 26.7723V19.727H276.06C276.792 19.727 276.596 19.727 278.332 19.727C279.186 20.0756 280.888 21.2865 281.607 22.0754C282.34 22.846 282.855 23.1579 283.343 24.4239C283.831 25.6715 284.085 28.3043 284.085 30.1024V35.06L283.638 40.0925Z" fill="#39D353"/>
<path d="M221.417 39.3496H214.007V13.2557H221.417V39.3496Z" fill="#39D353"/>
<path d="M231.278 49.4596L192.521 49.7872C192.107 49.7872 191.722 49.678 191.367 49.4596C191.012 49.2413 190.701 48.9465 190.435 48.5753C190.184 48.1822 189.984 47.7237 189.836 47.1996C189.688 46.6756 189.614 46.1078 189.614 45.4964V2.81815H195.384V42.5612L231.278 42.3266V49.4596Z" fill="#39D353"/>
<path d="M189.221 37.5862C189.221 38.577 189.092 39.6503 188.834 40.8062C188.576 41.9437 188.156 43.0078 187.573 43.9986C187.003 44.971 186.251 45.7875 185.315 46.448C184.392 47.1085 183.267 47.4387 181.938 47.4387H172.396C171.664 47.4387 170.87 47.2644 170.016 46.9158C169.175 46.5672 168.388 46.0076 167.656 45.237C166.937 44.4481 165.988 42.1901 165.5 40.9425C165.011 39.6765 165.113 39.3843 165.113 37.5862C165.113 36.5955 165.242 35.5222 165.5 34.3663C165.757 33.2104 166.171 32.1463 166.741 31.1738C167.324 30.1831 168.077 29.3575 168.999 28.697C169.935 28.0365 171.067 27.7062 172.396 27.7062H181.938V34.5314H172.396C171.677 34.5314 171.121 34.8341 170.728 35.4396C170.335 36.0267 170.138 36.7606 170.138 37.6413C170.138 38.577 170.362 39.3109 170.809 39.8429C171.271 40.3567 171.813 40.6135 172.437 40.6135H181.938C182.656 40.6135 183.212 40.32 183.606 39.7329C183.999 39.1457 184.196 38.4118 184.196 37.5312V27.5411C184.196 26.6054 183.979 25.8623 183.545 25.3119C183.124 24.7615 182.589 24.4863 181.938 24.4863H170.321V17.6886H181.938C182.67 17.6886 183.457 17.8629 184.297 18.2115C185.152 18.5601 185.939 19.1289 186.657 19.9178C187.39 20.6884 188 21.7067 188.488 22.9726C188.977 24.2202 189.221 25.7431 189.221 27.5411V37.5862Z" fill="#39D353"/>
<path d="M162.896 28.5903C162.896 29.5288 162.763 30.5455 162.498 31.6404C162.232 32.718 161.798 33.726 161.196 34.6645C160.608 35.5857 159.831 36.3591 158.866 36.9847C157.914 37.6104 156.753 37.9232 155.381 37.9232H145.536V31.484H155.381C156.123 31.484 156.697 31.2059 157.102 30.6498C157.508 30.0762 157.711 29.3724 157.711 28.5381C157.711 27.6518 157.48 26.9566 157.018 26.4525C156.571 25.9485 156.025 25.6965 155.381 25.6965H145.536C144.794 25.6965 144.22 25.9833 143.814 26.5568C143.408 27.113 143.205 27.8082 143.205 28.6424V38.1057C143.205 39.0095 143.429 39.7134 143.877 40.2174C144.339 40.7214 144.906 40.9734 145.578 40.9734L165.693 40.9734L172.741 47.4387H145.536C144.78 47.4387 143.961 47.2736 143.08 46.9434C142.212 46.6132 141.4 46.0831 140.644 45.3531C139.903 44.6058 139.28 43.6412 138.776 42.4594C138.272 41.2602 138.02 39.809 138.02 38.1057V28.5903C138.02 27.6518 138.153 26.6437 138.419 25.5662C138.685 24.4712 139.112 23.4632 139.7 22.5421C140.302 21.6036 141.078 20.8215 142.03 20.1958C142.996 19.5701 144.164 19.2573 145.536 19.2573H155.381C156.137 19.2573 156.949 19.4224 157.816 19.7526C158.698 20.0828 159.51 20.6216 160.251 21.3689C161.007 22.0989 161.637 23.0635 162.141 24.2627C162.644 25.4445 162.896 26.887 162.896 28.5903Z" fill="#39D353"/>
<path d="M134.984 21.2388C134.984 22.8717 134.834 24.3303 134.536 25.6146C134.238 26.8989 133.831 28.0365 133.315 29.0272C132.814 29.9996 132.23 30.8344 131.566 31.5316C130.901 32.2288 130.203 32.8068 129.47 33.2654C128.752 33.7058 128.019 34.0269 127.273 34.2287C126.541 34.4305 125.849 34.5314 125.198 34.5314L136.245 47.4387H128.067L117.04 34.5314H113.236V27.376H125.198C125.863 27.3026 126.466 27.1191 127.009 26.8256C127.565 26.5136 128.04 26.1008 128.433 25.5871C128.84 25.0734 129.152 24.4588 129.369 23.7432C129.586 23.0093 129.694 22.1745 129.694 21.2388V16.7254C129.694 16.3217 129.654 16.019 129.572 15.8172C129.504 15.597 129.409 15.4411 129.287 15.3493C129.179 15.2392 129.057 15.175 128.921 15.1567C128.799 15.1383 128.684 15.1292 128.575 15.1292H111.12V47.4387H105.831V11.579C105.831 11.0836 105.899 10.6157 106.034 10.1754C106.17 9.73506 106.353 9.34977 106.583 9.01952C106.828 8.68927 107.112 8.43241 107.438 8.24893C107.763 8.06546 108.116 7.97372 108.496 7.97372H128.575C129.755 7.97372 130.752 8.26728 131.566 8.85439C132.38 9.42316 133.037 10.1479 133.539 11.0285C134.055 11.8909 134.421 12.8266 134.638 13.8357C134.868 14.8448 134.984 15.7897 134.984 16.6703V21.2388Z" fill="#39D353"/>
<path d="M101.742 24.844H89.8404C89.1216 24.844 88.5791 25.0917 88.2129 25.5871C87.8467 26.0641 87.6636 26.7705 87.6636 27.7062V47.4387H82.3741V27.7062C82.3741 26.4769 82.4894 25.3761 82.72 24.4037C82.9506 23.4313 83.2557 22.5781 83.6355 21.8443C84.0288 21.092 84.4764 20.459 84.9782 19.9453C85.48 19.4132 86.0022 18.9821 86.5447 18.6518C87.1007 18.3216 87.6568 18.0831 88.2129 17.9363C88.7825 17.7712 89.3114 17.6886 89.7997 17.6886H101.742V24.844Z" fill="#39D353"/>
<path d="M77.5323 43.8335C77.5323 44.3472 77.4645 44.8242 77.3288 45.2646C77.1932 45.7049 77.0033 46.0902 76.7592 46.4204C76.5286 46.7323 76.2506 46.98 75.9251 47.1635C75.6132 47.347 75.2741 47.4387 74.9079 47.4387H62.9456C62.2946 47.4387 61.5962 47.3378 60.8502 47.136C60.1178 46.9342 59.3922 46.6131 58.6734 46.1727C57.9546 45.7141 57.2561 45.1453 56.578 44.4665C55.9134 43.7693 55.3302 42.9345 54.8284 41.962C54.3266 40.9713 53.9197 39.8338 53.6078 38.5495C53.3094 37.2651 53.1602 35.8157 53.1602 34.2011V17.6886H58.4496V34.2011C58.4496 35.1369 58.5649 35.9808 58.7955 36.7331C59.0396 37.467 59.3651 38.0999 59.772 38.632C60.1789 39.1641 60.6536 39.5769 61.1961 39.8705C61.7521 40.1457 62.3489 40.2833 62.9863 40.2833H72.2428V17.6886H77.5323V43.8335Z" fill="#39D353"/>
<path d="M51.1529 35.2469C51.1529 36.6597 51.0173 37.9348 50.746 39.0724C50.4883 40.1915 50.1425 41.1823 49.7085 42.0446C49.2745 42.9069 48.7659 43.6408 48.1827 44.2463C47.5995 44.8517 46.996 45.3471 46.3721 45.7324C45.7482 46.1177 45.1108 46.4021 44.4598 46.5856C43.8223 46.769 43.2188 46.8608 42.6491 46.8608H22.2441V39.7053H42.6491C43.6663 39.7053 44.453 39.3017 45.009 38.4944C45.5787 37.6871 45.8635 36.6046 45.8635 35.2469C45.8635 34.5864 45.7889 33.981 45.6397 33.4306C45.4905 32.8801 45.2735 32.4031 44.9887 31.9995C44.7174 31.5958 44.3784 31.2839 43.9715 31.0638C43.5782 30.8436 43.1374 30.7335 42.6491 30.7335H30.4834C29.629 30.7335 28.7067 30.5317 27.7167 30.1281C26.7266 29.7061 25.8043 29.0364 24.9499 28.119C24.109 27.2017 23.4037 25.9999 22.8341 24.5138C22.278 23.0277 22 21.2113 22 19.0647C22 16.918 22.278 15.1108 22.8341 13.643C23.4037 12.1569 24.109 10.9552 24.9499 10.0378C25.8043 9.10208 26.7266 8.4324 27.7167 8.02876C28.7067 7.60678 29.629 7.39578 30.4834 7.39578H48.203V14.5512H30.4834C29.4798 14.5512 28.6932 14.964 28.1235 15.7897C27.5675 16.6153 27.2894 17.707 27.2894 19.0647C27.2894 20.4407 27.5675 21.5324 28.1235 22.3396C28.6932 23.1286 29.4798 23.523 30.4834 23.523H42.6491H42.6898C43.2595 23.5414 43.863 23.6515 44.5004 23.8533C45.1379 24.0368 45.7685 24.3303 46.3924 24.734C47.0299 25.1376 47.6334 25.6513 48.203 26.2751C48.7727 26.8806 49.2745 27.6145 49.7085 28.4768C50.1561 29.3391 50.5087 30.3299 50.7664 31.4491C51.0241 32.5682 51.1529 33.8342 51.1529 35.2469Z" fill="#39D353"/>
<path opacity="0.96" d="M220.951 5.68661C220.951 5.85995 220.928 6.04726 220.883 6.24856C220.837 6.44985 220.763 6.63717 220.66 6.81051C220.556 6.98385 220.422 7.12923 220.257 7.24665C220.092 7.36407 219.891 7.42278 219.656 7.42278H216.751C216.619 7.42278 216.478 7.39203 216.33 7.33052C216.181 7.26902 216.043 7.16837 215.915 7.02858C215.787 6.88879 215.679 6.70986 215.592 6.49179C215.51 6.27372 215.469 6.00533 215.469 5.68661C215.469 5.51327 215.491 5.32316 215.537 5.11627C215.582 4.90938 215.654 4.71927 215.754 4.54593C215.857 4.37259 215.989 4.22721 216.15 4.10979C216.315 3.99237 216.515 3.93366 216.751 3.93366H218.045V5.46015H216.751C216.738 5.46015 216.724 5.46295 216.707 5.46854C216.691 5.46854 216.674 5.47692 216.658 5.4937C216.641 5.50488 216.627 5.52725 216.615 5.5608C216.602 5.58876 216.596 5.63069 216.596 5.68661C216.596 5.76489 216.612 5.81801 216.646 5.84597C216.679 5.87392 216.718 5.8879 216.763 5.8879H218.256C218.289 5.8879 218.316 5.87392 218.337 5.84597C218.361 5.81242 218.374 5.75371 218.374 5.66983V3.7072C218.374 3.65687 218.366 3.60935 218.349 3.56461C218.337 3.51429 218.285 3.48913 218.194 3.48913H216.113V1.95425H218.207C218.335 1.95425 218.475 1.985 218.628 2.04651C218.781 2.10801 218.921 2.20866 219.049 2.34845C219.177 2.48824 219.284 2.66997 219.371 2.89363C219.458 3.11729 219.501 3.38848 219.501 3.7072V5.68661C219.501 5.72016 219.499 5.75371 219.495 5.78726C219.491 5.8208 219.489 5.85435 219.489 5.8879H219.656C219.701 5.8879 219.739 5.87952 219.768 5.86274C219.801 5.84597 219.817 5.78166 219.817 5.66983V2.72588C219.817 2.54136 219.794 2.37641 219.749 2.23103C219.704 2.08006 219.642 1.95425 219.563 1.8536C219.485 1.74736 219.392 1.66628 219.284 1.61037C219.177 1.55445 219.059 1.52649 218.931 1.52649H216.026C215.89 1.52649 215.766 1.55725 215.654 1.61875C215.547 1.68026 215.454 1.76693 215.376 1.87876C215.301 1.985 215.243 2.11081 215.202 2.25619C215.161 2.40157 215.14 2.55813 215.14 2.72588V6.65954C215.14 6.83847 215.163 7.00342 215.208 7.15439C215.254 7.29977 215.316 7.42558 215.394 7.53182C215.477 7.63806 215.572 7.72193 215.679 7.78344C215.787 7.83935 215.902 7.86731 216.026 7.86731H216.751V9.39381H216.026C215.824 9.39381 215.605 9.34628 215.369 9.25122C215.134 9.15617 214.915 8.9996 214.713 8.78153C214.51 8.56346 214.341 8.28109 214.205 7.93441C214.073 7.58773 214.007 7.16278 214.007 6.65954V2.72588C214.007 2.4519 214.042 2.15554 214.112 1.83682C214.182 1.51811 214.298 1.22455 214.459 0.956155C214.62 0.682169 214.828 0.455711 215.085 0.276782C215.341 0.0922606 215.654 0 216.026 0H218.931C219.134 0 219.353 0.0475282 219.588 0.142585C219.823 0.237641 220.042 0.394204 220.245 0.612275C220.447 0.824754 220.614 1.10433 220.746 1.45101C220.883 1.79768 220.951 2.22264 220.951 2.72588V5.68661Z" fill="#39D353"/>
</svg>
